<svg xmlns="http://www.w3.org/2000/svg" width="26.292" height="27.388" viewBox="0 0 26.292 27.388">
  <path id="Icon_material-add-shopping-cart" data-name="Icon material-add-shopping-cart" d="M14.542,11.933H17.15V8.021h3.913V5.413H17.15V1.5H14.542V5.413H10.629V8.021h3.913ZM9.325,23.671a2.608,2.608,0,1,0,2.608,2.608A2.6,2.6,0,0,0,9.325,23.671Zm13.042,0a2.608,2.608,0,1,0,2.608,2.608A2.6,2.6,0,0,0,22.367,23.671ZM9.547,19.432l.039-.156L10.76,17.15h9.716a2.6,2.6,0,0,0,2.282-1.343l5.034-9.142L25.523,5.413H25.51L24.075,8.021l-3.6,6.521H11.32l-.17-.352L8.23,8.021,6.991,5.413,5.765,2.8H1.5V5.413H4.108l4.7,9.9-1.761,3.2a2.522,2.522,0,0,0-.326,1.252,2.616,2.616,0,0,0,2.608,2.608h15.65V19.758H9.873A.331.331,0,0,1,9.547,19.432Z" transform="translate(-1.5 -1.5)" fill="#f7f7f7"/>
</svg>
