<svg xmlns="http://www.w3.org/2000/svg" width="20.896" height="20.367" viewBox="0 0 20.896 20.367">
  <path id="Icon_awesome-arrow-right" data-name="Icon awesome-arrow-right" d="M8.885,4.011,9.92,2.976a1.115,1.115,0,0,1,1.581,0l9.067,9.062a1.115,1.115,0,0,1,0,1.581L11.5,22.686a1.115,1.115,0,0,1-1.581,0L8.885,21.65a1.121,1.121,0,0,1,.019-1.6l5.62-5.354H1.119A1.117,1.117,0,0,1,0,13.577V12.085a1.117,1.117,0,0,1,1.119-1.119h13.4L8.9,5.611A1.113,1.113,0,0,1,8.885,4.011Z" transform="translate(0 -2.647)" fill="#535353"/>
</svg>
