<svg xmlns="http://www.w3.org/2000/svg" width="26.291" height="25.67" viewBox="0 0 26.291 25.67">
  <path id="carrinho" d="M52.282,188.117c.058.168.118.331.169.5.038.123.069.249.1.376a1.036,1.036,0,0,1,.012.193,2.6,2.6,0,0,1,0,.324c-.017.16-.047.319-.078.478a1.219,1.219,0,0,1-.069.245,3.368,3.368,0,0,1-.42.763,3.262,3.262,0,0,1-.415.437,2.173,2.173,0,0,1-.663.418c-.149.057-.3.1-.451.16a2.84,2.84,0,0,1-1.2.1,1.589,1.589,0,0,1-.479-.116,4.442,4.442,0,0,1-.529-.224,1.848,1.848,0,0,1-.281-.2c-.126-.095-.253-.188-.369-.293a2.124,2.124,0,0,1-.236-.264,2.9,2.9,0,0,1-.169-.253c-.037-.059-.071-.12-.1-.182-.067-.134-.136-.267-.2-.406a.714.714,0,0,1-.054-.227c-.019-.3-.044-.6-.042-.9a1.809,1.809,0,0,1,.088-.491,3.7,3.7,0,0,1,.184-.425H43.124c.071.189.147.364.2.545a1.607,1.607,0,0,1,.054.369c.009.161,0,.324,0,.486a1.305,1.305,0,0,1-.1.558c-.039.085-.043.186-.079.273a3.037,3.037,0,0,1-.5.8,2.337,2.337,0,0,1-.684.542c-.111.06-.213.135-.326.189s-.214.069-.319.11a3.1,3.1,0,0,1-1.216.1,1.775,1.775,0,0,1-.385-.095,2.435,2.435,0,0,1-.348-.094,2.331,2.331,0,0,1-.625-.356c-.106-.091-.228-.164-.332-.258a2.141,2.141,0,0,1-.211-.248,1.394,1.394,0,0,1-.138-.183c-.112-.2-.219-.4-.324-.6a.483.483,0,0,1-.035-.124c-.031-.147-.065-.294-.09-.443a1.937,1.937,0,0,1-.038-.35,2.435,2.435,0,0,1,.047-.533,6.186,6.186,0,0,1,.23-.666c.033-.09.018-.129-.063-.153a3.3,3.3,0,0,1-1.089-.483c-.161-.109-.29-.264-.443-.385a2.409,2.409,0,0,1-.574-.757,3.508,3.508,0,0,1-.228-.621,2.188,2.188,0,0,1-.071-.293c-.017-.091-.024-.183-.038-.275-.024-.163-.049-.326-.075-.489-.01-.067-.025-.133-.032-.2a2.966,2.966,0,0,0-.052-.51,4.562,4.562,0,0,1-.1-.745c-.019-.167-.07-.33-.093-.5-.026-.191-.033-.385-.057-.576-.02-.163-.052-.325-.08-.488,0-.017-.013-.034-.016-.051-.026-.207-.049-.413-.076-.62-.023-.176-.051-.351-.075-.527-.026-.192-.052-.384-.075-.577a2.457,2.457,0,0,0-.051-.445,3.3,3.3,0,0,1-.1-.7,2.206,2.206,0,0,0-.049-.424,3.457,3.457,0,0,1-.107-.744,3.876,3.876,0,0,0-.089-.453.546.546,0,0,1-.009-.064c-.016-.2-.025-.393-.051-.587-.021-.163-.061-.324-.092-.486,0,0,0-.007,0-.01-.025-.2-.05-.4-.076-.6-.022-.169-.048-.337-.072-.506,0-.007,0-.014,0-.021-.025-.207-.05-.413-.074-.62a2.522,2.522,0,0,0-.049-.424,3.029,3.029,0,0,1-.1-.734,1.475,1.475,0,0,0-.046-.37,3.17,3.17,0,0,1-.105-.744c-.009-.128-.022-.256-.043-.383-.025-.152-.06-.3-.091-.453,0-.007,0-.014-.005-.021-.025-.207-.048-.413-.075-.62-.022-.169-.049-.337-.074-.506a.078.078,0,0,1,0-.01c-.025-.2-.043-.407-.077-.609a4.748,4.748,0,0,0-.115-.49,1.676,1.676,0,0,0-.395-.66.73.73,0,0,0-.574-.264c-.428.006-.857,0-1.285,0a.7.7,0,0,1-.677-.673.862.862,0,0,1,.088-.476.957.957,0,0,1,.273-.253.928.928,0,0,1,.582-.116c.482,0,.964,0,1.447.013a1.422,1.422,0,0,1,.328.094,1.706,1.706,0,0,1,.215.059,2.713,2.713,0,0,1,.247.136.806.806,0,0,1,.091.054c.1.078.207.155.307.237a1.139,1.139,0,0,1,.152.146,2.425,2.425,0,0,1,.329.415,2.733,2.733,0,0,1,.348.7,4.4,4.4,0,0,0,.152.429,1.724,1.724,0,0,1,.055.281c.019.145.029.291.05.436.025.177.059.353.085.53a2.412,2.412,0,0,1,.022.267c0,.157.049.2.2.2H53.648a2.783,2.783,0,0,1,.3,0,4.033,4.033,0,0,1,.531.08,2.885,2.885,0,0,1,.515.179,3.408,3.408,0,0,1,.446.267,1.777,1.777,0,0,1,.269.219,2.74,2.74,0,0,1,.268.31,1.805,1.805,0,0,1,.221.352c.075.175.112.367.184.544a2.455,2.455,0,0,1,.055.932,3.025,3.025,0,0,1-.09.55c0,.01-.007.02-.009.031l-.07.61a6.692,6.692,0,0,1-.1.784,7.172,7.172,0,0,0-.1.723c-.023.174-.068.344-.1.517-.02.119-.03.24-.045.36-.023.2-.048.393-.07.589a2.628,2.628,0,0,1-.052.445,3.671,3.671,0,0,0-.1.734,1.655,1.655,0,0,1-.047.37,4.063,4.063,0,0,0-.105.744c-.023.174-.068.344-.1.517-.02.119-.03.24-.045.36-.023.2-.04.394-.072.588a5.155,5.155,0,0,1-.125.577,2.378,2.378,0,0,1-.182.46c-.083.154-.209.286-.288.442a2.838,2.838,0,0,1-.452.505,1.25,1.25,0,0,1-.264.2c-.147.1-.3.2-.448.285a1.112,1.112,0,0,1-.235.1c-.18.056-.365.095-.541.16a2.878,2.878,0,0,1-1.034.1H37.066a.979.979,0,0,1-.108,0c-.1-.011-.108.042-.1.119.015.109.024.22.041.328.025.155.054.31.082.466a.68.68,0,0,1,.021.116,1.351,1.351,0,0,0,.17.592,1.664,1.664,0,0,0,.357.411,1.4,1.4,0,0,0,.57.333.939.939,0,0,0,.418.088,1.714,1.714,0,0,1,.237,0q7.688,0,15.375,0a1.231,1.231,0,0,1,.457.085.79.79,0,0,1,.357.335.778.778,0,0,1,.094.458.817.817,0,0,1-.524.631,1.969,1.969,0,0,1-.664.054C53.328,188.123,52.8,188.117,52.282,188.117ZM38.245,172.025H35.331c-.128,0-.17.071-.127.191a1.49,1.49,0,0,1,.056.244c.008.045,0,.094.008.139.025.18.053.359.078.538a4.036,4.036,0,0,0,.078.563c.049.172.028.347.083.522a3.986,3.986,0,0,1,.1.729q.036.31.071.621s0,.007,0,.011c.035.245.073.489.106.734.017.133.05.171.177.171h5.526c.128,0,.17-.074.121-.194a.609.609,0,0,1-.047-.181c-.017-.221-.024-.443-.043-.663a7.529,7.529,0,0,0-.053-.765,7.835,7.835,0,0,1-.061-1.018c-.008-.153-.037-.306-.032-.459.011-.351-.055-.7-.074-1.043-.007-.139,0-.14-.145-.14Zm1.087,10.5c.86,0,1.72,0,2.58,0,.091,0,.13-.028.113-.117a1.67,1.67,0,0,1-.055-.213c-.021-.336-.033-.673-.052-1.009-.008-.157-.026-.313-.034-.47a6.045,6.045,0,0,0-.065-.893,2.684,2.684,0,0,1-.04-.62c.011-.352-.07-.695-.072-1.044,0-.113-.036-.136-.142-.136q-2.694,0-5.387,0a.232.232,0,0,1-.032,0c-.091-.014-.118.032-.1.112.01.059.031.118.036.177a3.642,3.642,0,0,0,.1.756,2.268,2.268,0,0,1,.049.4c.023.2.047.407.07.611,0,.007,0,.014,0,.021.026.176.055.351.079.527.026.192.048.385.071.576a.087.087,0,0,0,0,.01c.032.169.073.337.1.507.025.195.033.392.05.587s.038.208.225.208Zm12.433-6.04h2.461a.233.233,0,0,0,.1,0c.031-.015.074-.049.075-.077a4.571,4.571,0,0,1,.1-.734,6.993,6.993,0,0,1,.113-.765,1.429,1.429,0,0,0,.045-.37,3.915,3.915,0,0,1,.1-.767,4.373,4.373,0,0,0,.055-.574c.009-.083.034-.164.048-.248a.151.151,0,0,0-.016-.066.341.341,0,0,1-.031-.088.7.7,0,0,0-.283-.52,1.009,1.009,0,0,0-.685-.253q-2.143,0-4.286,0c-.014,0-.033,0-.042,0-.025.018-.064.04-.066.063-.014.165-.028.329-.056.494a7.8,7.8,0,0,0-.054.942c-.006.147,0,.3-.012.442-.028.361-.071.721-.095,1.082s-.034.752-.053,1.128a.251.251,0,0,1-.035.1c-.069.13-.022.212.123.212Zm-1.209,6.04c.461,0,.922,0,1.382,0a1.665,1.665,0,0,0,.867-.152,1.819,1.819,0,0,0,.372-.229,2.9,2.9,0,0,0,.387-.467,1.081,1.081,0,0,0,.128-.33c.029-.109.034-.225.054-.337.029-.166.07-.33.092-.5.025-.194.035-.391.051-.587a.306.306,0,0,1,.005-.043,3.583,3.583,0,0,0,.092-.464,3.8,3.8,0,0,1,.106-.744,3.517,3.517,0,0,0,.052-.511c.013-.11-.024-.139-.134-.139q-2.419.005-4.837,0a.207.207,0,0,0-.075,0c-.022.009-.052.033-.053.052a3.742,3.742,0,0,1-.059.549,5.083,5.083,0,0,0-.052.705,5.849,5.849,0,0,1-.053.765,6.6,6.6,0,0,0-.056.986c-.016.369-.032.738-.052,1.107a.3.3,0,0,1-.039.108c-.066.132-.015.222.127.222Zm-5.182-10.5c-.777,0-1.554,0-2.331,0-.088,0-.123.024-.116.116.018.225.029.449.043.674.012.2.02.407.039.61a6.171,6.171,0,0,0,.055.808,5.253,5.253,0,0,1,.057.866c.022.405.044.81.069,1.216.009.148.044.175.193.175H47.4c.066,0,.106-.006.126-.091.074-.314,0-.637.087-.954a3.328,3.328,0,0,0,.051-.672,4.259,4.259,0,0,1,.057-.8,3.666,3.666,0,0,0,.051-.7c.017-.372.028-.745.048-1.117.006-.109-.034-.132-.134-.131C46.913,172.026,46.143,172.025,45.373,172.025Zm0,6.007c-.641,0-1.281,0-1.921,0-.1,0-.127.029-.119.124.017.185.023.371.04.556a7.318,7.318,0,0,0,.052.733,7.421,7.421,0,0,1,.061,1c.008.157.023.313.034.47.025.369.049.739.075,1.108.009.132.03.262.031.394,0,.106.049.12.139.12q1.6,0,3.205,0c.021,0,.048.007.064,0s.059-.038.066-.064c.087-.34.006-.695.1-1.039.045-.169-.012-.363.024-.536.063-.295,0-.594.08-.892a3.266,3.266,0,0,0,.052-.726c.017-.372.028-.745.048-1.117,0-.095-.023-.124-.12-.123C46.651,178.034,46.013,178.032,45.377,178.032Zm3.038,11.289a1.535,1.535,0,0,0,0,.217.812.812,0,0,0,.065.243,2.929,2.929,0,0,0,.223.35.567.567,0,0,0,.164.171,2.9,2.9,0,0,0,.438.206,1.1,1.1,0,0,0,.68.017,1.129,1.129,0,0,0,.686-.439,1.277,1.277,0,0,0,.218-.419,1.187,1.187,0,0,0-.357-1.223,1.188,1.188,0,0,0-.812-.324,1.268,1.268,0,0,0-.718.18,1.085,1.085,0,0,0-.394.364A.945.945,0,0,0,48.415,189.321Zm-6.641-.022c-.03-.092.011-.216-.056-.344a2.068,2.068,0,0,0-.2-.362,1.219,1.219,0,0,0-.845-.469,1.264,1.264,0,0,0-1.347.807.869.869,0,0,1-.046.152.671.671,0,0,0-.03.479,1.912,1.912,0,0,0,.176.389.974.974,0,0,0,.37.4,1.561,1.561,0,0,0,.407.185.789.789,0,0,0,.337.042,1.256,1.256,0,0,0,.639-.191,1.854,1.854,0,0,0,.318-.253A1.173,1.173,0,0,0,41.773,189.3Z" transform="translate(-30.166 -166.45)" fill="#3f8b68"/>
</svg>
