<svg xmlns="http://www.w3.org/2000/svg" width="15.665" height="10.757" viewBox="0 0 15.665 10.757">
  <g id="Grupo_988" data-name="Grupo 988" transform="translate(0 0.001)">
    <g id="icon-content" transform="translate(0 -0.001)">
      <g id="Grupo_132" data-name="Grupo 132" transform="translate(0.097 0.401)">
        <path id="Caminho_71" data-name="Caminho 71" d="M73.232,136.626q-6.847,0-13.693,0c-.488,0-.8.213-.806.546-.005.588,0,1.174,0,1.761H74.03c0-.588.008-1.174,0-1.761C74.033,136.841,73.717,136.626,73.232,136.626Z" transform="translate(-58.731 -136.625)" fill="currentColor"/>
        <path id="Caminho_75" data-name="Caminho 75" d="M369,289.4v3.229h5.439V289.4Zm4.986,2.756h-4.522v-2.295h4.522Z" transform="translate(-360.464 -285.378)" fill="#currentColor"/>
      </g>
      <g id="Grupo_133" data-name="Grupo 133" transform="translate(0 0)">
        <path id="Caminho_76" data-name="Caminho 76" d="M48.013,113.227q-6.386,0-12.769,0A1.329,1.329,0,0,0,33.8,114.61q-.019,3.96,0,7.919a1.351,1.351,0,0,0,1.5,1.442h6.317c2.107,0,4.213-.021,6.317.01a1.4,1.4,0,0,0,1.514-1.468q.019-3.944,0-7.886A1.33,1.33,0,0,0,48.013,113.227Zm.809,9.253a.8.8,0,0,1-.932.889l-.466.005H42.868l-.466-.005h-.43l-.466.005H36.087l-.466-.005c-.4.015-.811.077-1.048-.361a.9.9,0,0,1-.142-.394c-.01-1.888,0-3.775.005-5.661,0-.8-.008-1.589,0-2.385a.7.7,0,0,1,.757-.739q6.432,0,12.864,0a.7.7,0,0,1,.757.739c.005.8,0,1.589,0,2.385.008.85.015,1.7.018,2.547C48.824,120.495,48.827,121.486,48.822,122.48Z" transform="translate(-33.787 -113.225)" fill="currentColor"/>
        <path id="Caminho_77" data-name="Caminho 77" d="M104.8,295.032h6V291.9h-6Z" transform="translate(-102.971 -287.412)" fill="#currentColor"/>
        <path id="Caminho_78" data-name="Caminho 78" d="M459.8,318.123c.353-.288,1.213-.9,1.213-.9s-.868-.641-1.213-.927Z" transform="translate(-448.829 -311.184)" fill="#currentColor"/>
      </g>
    </g>
  </g>
</svg>
