<svg xmlns="http://www.w3.org/2000/svg" width="37.83" height="26.511" viewBox="0 0 37.83 26.511">
  <path id="Caminho_69" data-name="Caminho 69" d="M63.9,123.4c.333.111.635.2.937.308a1.055,1.055,0,0,1,.74,1.023,4.643,4.643,0,0,1-.173,1.745,2.271,2.271,0,0,1-.974,1.227,2.521,2.521,0,0,1-1.393.407H30.6a3.641,3.641,0,0,1-1.208-.185,2.221,2.221,0,0,1-1.535-1.763,4.549,4.549,0,0,1-.049-1.634.925.925,0,0,1,.666-.8c.3-.1.617-.166.962-.253V104.263a4.751,4.751,0,0,1,.142-1.289,1.6,1.6,0,0,1,1.6-1.313,6.864,6.864,0,0,1,1-.055q11.227-.009,22.448-.006c2.3,0,4.6,0,6.9.012a4.824,4.824,0,0,1,1.067.142,1.45,1.45,0,0,1,1.11,1.036,4.374,4.374,0,0,1,.191,1.381V123.4Zm-2.232-.481V104.356a2.611,2.611,0,0,0-.049-.487.453.453,0,0,0-.4-.407,5.09,5.09,0,0,0-.61-.049H32.736a4.418,4.418,0,0,0-.635.055.387.387,0,0,0-.351.333,3.63,3.63,0,0,0-.055.635v17.393q0,.407.018.814c.006.092.025.191.037.29C41.725,122.92,51.676,122.92,61.664,122.92Zm1.967,1.9H49.895v.191a.748.748,0,0,1-.672.826,2.593,2.593,0,0,1-.536.049c-.949,0-1.905-.006-2.855-.006-.518,0-1.036.012-1.554,0a1.649,1.649,0,0,1-.456-.08.689.689,0,0,1-.53-.69c-.006-.08-.006-.16-.012-.247H29.493a1.905,1.905,0,0,0,.185,1.128.99.99,0,0,0,.29.327,1.773,1.773,0,0,0,.919.351c.117.006.228.006.345.006H62a2.174,2.174,0,0,0,.9-.16A1.3,1.3,0,0,0,63.631,124.819Z" transform="translate(-27.758 -101.6)" fill="#b0cf47"/>
  <path id="Caminho_70" data-name="Caminho 70" d="M199.881,185.705c-.58.265-1.11.506-1.658.752,0,.462-.006.925,0,1.381a1.647,1.647,0,0,1-1.085,1.671c-1.282.561-2.552,1.153-3.829,1.739-.21.1-.413.222-.623.327a1.634,1.634,0,0,1-1.511.006c-1.548-.721-3.1-1.437-4.649-2.164a1.494,1.494,0,0,1-.906-1.43c-.006-.506,0-1.017,0-1.541-.259-.123-.518-.24-.777-.358-.475-.216-.949-.444-1.437-.647a1.313,1.313,0,0,1-.481-2.09,1.59,1.59,0,0,1,.518-.388c2.67-1.2,5.333-2.4,8-3.613a1.048,1.048,0,0,1,.764-.123c.136.043.259.123.395.179,2.6,1.184,5.179,2.386,7.787,3.545a1.455,1.455,0,0,1,.771,1.776.859.859,0,0,0-.055.333q-.009,3.376-.019,6.751a.967.967,0,0,0,.111.493c.086.16.154.327.228.487a.6.6,0,0,1,.018.475l-.37,1.036a.578.578,0,0,1-.555.376.605.605,0,0,1-.592-.364c-.142-.314-.271-.629-.425-.937a.647.647,0,0,1,.031-.7,2.308,2.308,0,0,0,.358-1.369c-.025-1.763-.012-3.533-.012-5.3C199.881,185.939,199.881,185.853,199.881,185.705Zm-16.1-1.492c0,.025.006.049.006.068.148.068.29.142.438.21,2.1.974,4.236,1.862,6.307,2.91.395.2.808.364,1.208.549a.44.44,0,0,0,.419-.006q.749-.379,1.517-.74c.826-.382,1.652-.752,2.485-1.134l3.693-1.683c.074-.037.142-.086.24-.148a1.2,1.2,0,0,0-.173-.123c-.678-.327-1.35-.66-2.028-.974q-2.645-1.221-5.3-2.417a1.8,1.8,0,0,0-.629-.253,1.648,1.648,0,0,0-.629.253c-1.911.894-3.866,1.689-5.752,2.639-.506.253-1.03.462-1.548.7C183.943,184.115,183.869,184.17,183.783,184.213Zm13.225,2.774c-.29.16-.524.308-.771.419-1.221.561-2.448,1.11-3.662,1.677a1.41,1.41,0,0,1-1.258,0c-1.2-.549-2.4-1.091-3.6-1.64-.092-.043-.173-.117-.265-.166-.2-.092-.395-.179-.623-.284,0,.345.006.647,0,.949a.421.421,0,0,0,.29.432c1.523.691,3.046,1.375,4.562,2.072a.536.536,0,0,0,.493,0c.8-.37,1.609-.734,2.411-1.1.715-.327,1.43-.654,2.146-.974A.391.391,0,0,0,197,188C197.008,187.69,197.008,187.37,197.008,186.988Z" transform="translate(-173.046 -174.41)" fill="#6e9e4a"/>
</svg>
