<svg xmlns="http://www.w3.org/2000/svg" width="16.957" height="11.884" viewBox="0 0 16.957 11.884">
  <g id="icon-course" transform="translate(-2 0)">
    <path id="Caminho_69" data-name="Caminho 69" d="M43.957,111.372c.149.05.285.091.42.138a.473.473,0,0,1,.332.459,2.082,2.082,0,0,1-.077.782,1.018,1.018,0,0,1-.437.55,1.13,1.13,0,0,1-.625.182H29.033a1.632,1.632,0,0,1-.542-.083,1,1,0,0,1-.688-.79,2.039,2.039,0,0,1-.022-.732.414.414,0,0,1,.3-.359c.135-.044.276-.075.431-.113v-8.612a2.13,2.13,0,0,1,.064-.578.716.716,0,0,1,.716-.589,3.08,3.08,0,0,1,.45-.025q5.033,0,10.062,0c1.031,0,2.062,0,3.093.006a2.162,2.162,0,0,1,.478.064.65.65,0,0,1,.5.464,1.96,1.96,0,0,1,.086.619v8.62Zm-1-.216v-8.321a1.17,1.17,0,0,0-.022-.218.2.2,0,0,0-.18-.182,2.283,2.283,0,0,0-.274-.022H29.99a1.981,1.981,0,0,0-.285.025.173.173,0,0,0-.158.149,1.627,1.627,0,0,0-.025.285v7.8q0,.182.008.365c0,.041.011.086.017.13C34.019,111.157,38.48,111.157,42.957,111.157Z" transform="translate(-25.758 -101.6)"/>
    <path id="Caminho_70" data-name="Caminho 70" d="M190.342,182.113c-.26.119-.5.227-.743.337,0,.207,0,.415,0,.619a.738.738,0,0,1-.486.749c-.575.251-1.144.517-1.716.779-.094.044-.185.1-.279.146a.733.733,0,0,1-.677,0c-.694-.323-1.39-.644-2.084-.97a.67.67,0,0,1-.406-.641c0-.227,0-.456,0-.691-.116-.055-.232-.108-.348-.16-.213-.1-.426-.2-.644-.29a.588.588,0,0,1-.216-.937.713.713,0,0,1,.232-.174c1.2-.539,2.391-1.075,3.584-1.619a.47.47,0,0,1,.343-.055c.061.019.116.055.177.08,1.163.531,2.321,1.07,3.49,1.589a.652.652,0,0,1,.345.8.385.385,0,0,0-.025.149q0,1.513-.008,3.026a.434.434,0,0,0,.05.221c.039.072.069.146.1.218a.271.271,0,0,1,.008.213l-.166.464a.259.259,0,0,1-.249.169.271.271,0,0,1-.265-.163c-.064-.141-.122-.282-.191-.42a.29.29,0,0,1,.014-.312,1.034,1.034,0,0,0,.16-.614c-.011-.79-.006-1.584-.006-2.374C190.342,182.218,190.342,182.179,190.342,182.113Z" transform="translate(-176.313 -177.05)"/>
  </g>
</svg>
