<svg xmlns="http://www.w3.org/2000/svg" width="37.116" height="30.423" viewBox="0 0 37.116 30.423">
  <path id="Caminho_146" data-name="Caminho 146" d="M216.565,191.989c-1.139.521-2.181.993-3.259,1.478,0,.909-.012,1.817,0,2.714a3.236,3.236,0,0,1-2.132,3.283c-2.52,1.1-5.016,2.266-7.524,3.417-.412.194-.812.436-1.224.642a3.212,3.212,0,0,1-2.968.012c-3.041-1.418-6.094-2.823-9.135-4.253a2.937,2.937,0,0,1-1.781-2.811c-.012-.993,0-2,0-3.029-.509-.242-1.018-.473-1.527-.7-.933-.424-1.866-.872-2.823-1.272a2.579,2.579,0,0,1-.945-4.107,3.125,3.125,0,0,1,1.018-.763c5.246-2.363,10.48-4.713,15.714-7.1a2.059,2.059,0,0,1,1.5-.242c.267.085.509.242.775.351,5.1,2.326,10.177,4.689,15.3,6.966a2.859,2.859,0,0,1,1.514,3.489,1.688,1.688,0,0,0-.109.654q-.018,6.633-.036,13.266a1.9,1.9,0,0,0,.218.969c.17.315.3.642.448.957a1.188,1.188,0,0,1,.036.933l-.727,2.035a1.135,1.135,0,0,1-1.09.739,1.19,1.19,0,0,1-1.163-.715c-.279-.618-.533-1.236-.836-1.842a1.271,1.271,0,0,1,.061-1.369,4.535,4.535,0,0,0,.7-2.69c-.048-3.465-.024-6.942-.024-10.407C216.565,192.449,216.565,192.28,216.565,191.989Zm-31.634-2.932c0,.048.012.1.012.133.291.133.569.279.86.412,4.119,1.914,8.323,3.659,12.394,5.718.775.388,1.587.715,2.375,1.078a.864.864,0,0,0,.824-.012q1.472-.745,2.98-1.454c1.623-.751,3.247-1.478,4.883-2.229,2.423-1.1,4.834-2.205,7.257-3.308.145-.073.279-.17.473-.291a2.364,2.364,0,0,0-.339-.242c-1.333-.642-2.653-1.3-3.986-1.914q-5.2-2.4-10.419-4.749a3.534,3.534,0,0,0-1.236-.5,3.238,3.238,0,0,0-1.236.5c-3.756,1.757-7.6,3.32-11.3,5.185-.993.5-2.023.909-3.041,1.369C185.247,188.863,185.1,188.972,184.932,189.057Zm25.988,5.452c-.569.315-1.03.606-1.514.824-2.4,1.1-4.81,2.181-7.2,3.3a2.772,2.772,0,0,1-2.472,0c-2.35-1.078-4.713-2.144-7.075-3.223-.182-.085-.339-.23-.521-.327-.388-.182-.775-.351-1.224-.557,0,.678.012,1.272,0,1.866a.828.828,0,0,0,.569.848c2.993,1.357,5.985,2.7,8.965,4.071a1.053,1.053,0,0,0,.969,0c1.575-.727,3.162-1.442,4.737-2.169,1.405-.642,2.811-1.284,4.216-1.914a.767.767,0,0,0,.533-.727C210.919,195.89,210.919,195.26,210.919,194.509Z" transform="translate(-182.592 -179.194)" fill="#535353" opacity="0.752"/>
</svg>
