<svg xmlns="http://www.w3.org/2000/svg" width="15.291" height="12.328" viewBox="0 0 15.291 12.328">
  <g id="Grupo_987" data-name="Grupo 987" transform="translate(0 0.001)">
    <g id="icon-palestra" transform="translate(0 -0.001)">
      <path id="Caminho_79" data-name="Caminho 79" d="M19.524,53.824a1.715,1.715,0,0,1-.577-.07.918.918,0,0,1-.638-.817,3.353,3.353,0,0,1,0-.541.39.39,0,0,1,.293-.369,2.7,2.7,0,0,1,.276-.068c.063-.012.095-.041.087-.109s0-.109,0-.162v-7.6a1.925,1.925,0,0,1,.085-.56.619.619,0,0,1,.543-.446,2.508,2.508,0,0,1,.4-.029q2.273,0,4.543,0c.027,0,.056,0,.082,0,.075.01.1-.019.1-.1a4.758,4.758,0,0,1,.08-.965,1.265,1.265,0,0,1,1.2-.487c1.479,0,2.955,0,4.434.007a1.081,1.081,0,0,1,.895.456,1.419,1.419,0,0,1,.3.95c-.007.148-.015.136.138.141a3.836,3.836,0,0,1,.473.029c.434.065.575.284.63.693a3.84,3.84,0,0,1,.024.529q0,3.684,0,7.368v.109c0,.128.015.131.141.175a2.336,2.336,0,0,1,.359.15.327.327,0,0,1,.16.269,1.691,1.691,0,0,1-.034.739,1,1,0,0,1-.941.71l-.584,0C29.99,53.824,21.667,53.824,19.524,53.824ZM31.99,51.549v-7.3a1.344,1.344,0,0,0-.017-.242.213.213,0,0,0-.223-.2c-.109-.01-.114,0-.114.107,0,.366,0,.735,0,1.1a2.087,2.087,0,0,1-.034.39,1.178,1.178,0,0,1-.7.887,1.516,1.516,0,0,1-.594.124c-.366,0-.735,0-1.1,0a1.141,1.141,0,0,0-.737.206,7.692,7.692,0,0,1-.691.432c-.565.352-1.13.7-1.692,1.052a.138.138,0,0,1-.213-.041.326.326,0,0,1-.058-.133c-.019-.179-.039-.359-.046-.538-.01-.235,0-.47-.007-.706a.361.361,0,0,0-.245-.376,1.193,1.193,0,0,1-.715-.8,2.111,2.111,0,0,1-.073-.616c0-.327,0-.652,0-.979,0-.109-.141-.112-.155-.112-1.438,0-4.42,0-4.473.007-.1.015-.216.349-.216.429,0,2.32,0,7.206,0,7.327s.221.153.252.153" transform="translate(-18.297 -41.5)"/>
      <g id="Grupo_137" data-name="Grupo 137" transform="translate(2.712 1.971)">
        <path id="Caminho_281" data-name="Caminho 281" d="M0,.461Z" transform="translate(5.355)"/>
        <path id="Caminho_83" data-name="Caminho 83" d="M347.385,394.6h-4.139a.347.347,0,1,0,0,.693h4.139a.347.347,0,1,0,0-.693Z" transform="translate(-337.742 -388.01)"/>
        <path id="Caminho_84" data-name="Caminho 84" d="M131.976,347.1a1.855,1.855,0,0,0-1.816,1.229.362.362,0,0,0,.238.451c.189.061,2.96.019,3.108.019a.384.384,0,0,0,.126-.022.364.364,0,0,0,.216-.468A1.972,1.972,0,0,0,131.976,347.1Z" transform="translate(-130.145 -341.662)"/>
        <path id="Caminho_85" data-name="Caminho 85" d="M150.082,219.164a1.382,1.382,0,1,0-1.382-1.382A1.384,1.384,0,0,0,150.082,219.164Z" transform="translate(-148.25 -214.131)"/>
      </g>
    </g>
  </g>
</svg>
