<?xml version="1.0" encoding="utf-8"?>
<!-- Generator: Adobe Illustrator 24.3.0, SVG Export Plug-In . SVG Version: 6.00 Build 0)  -->
<svg version="1.1" id="Layer_1" xmlns="http://www.w3.org/2000/svg" xmlns:xlink="http://www.w3.org/1999/xlink" x="0px" y="0px"
	 viewBox="0 0 228.2 58.4" style="enable-background:new 0 0 228.2 58.4;" xml:space="preserve">
<style type="text/css">
	.st0{fill:#FFFFFF;}
	.st1{fill:#B2D236;}
</style>
<g>
	<path class="st0" d="M86.6,25.3c-0.8-1.6-2-2.7-3.5-3.6c-1.5-0.8-3.2-1.2-5.1-1.2s-3.6,0.5-5.2,1.3c-1.6,0.9-2.7,2.1-3.6,3.6
		c-0.9,1.5-1.3,3.2-1.3,5.1s0.5,3.7,1.3,5.2c0.9,1.6,2.1,2.7,3.8,3.6c1.7,0.9,3.6,1.3,5.7,1.3c1.7,0,3.2-0.3,4.6-0.8
		c1.3-0.5,2.4-1.3,3.3-2.4l-2.4-2.8c-1.3,1.4-3.2,2.1-5.3,2.1c-1.7,0-3.1-0.4-4.2-1.2c-1.1-0.8-1.9-2-2.1-3.4h15.3
		c0.1-0.6,0.1-1,0.1-1.4C87.8,28.6,87.4,26.8,86.6,25.3 M72.4,29c0.3-1.5,0.8-2.6,1.9-3.5c1-0.9,2.2-1.3,3.7-1.2
		c1.5,0,2.7,0.4,3.7,1.3c1,0.9,1.6,2,1.8,3.4H72.4z"/>
	<rect x="91.4" y="13.2" class="st0" width="4.6" height="27.2"/>
	<path class="st0" d="M114.7,21.8c-1.5-0.8-3.2-1.2-5.1-1.2c-1.9,0-3.6,0.5-5.2,1.3c-1.6,0.9-2.7,2.1-3.6,3.6
		c-0.9,1.5-1.3,3.2-1.3,5.1c0,1.9,0.5,3.7,1.3,5.2c0.9,1.6,2.1,2.7,3.8,3.6c1.7,0.9,3.6,1.3,5.7,1.3c1.7,0,3.2-0.4,4.6-0.9
		c1.3-0.5,2.4-1.3,3.3-2.4l-2.4-2.8c-1.3,1.4-3.2,2.1-5.3,2.1c-1.7,0-3.1-0.4-4.2-1.2c-1.1-0.8-1.9-2-2.1-3.4h15.3
		c0.1-0.6,0.1-1,0.1-1.3c0-2-0.4-3.8-1.2-5.3C117.4,23.8,116.2,22.6,114.7,21.8 M104,29c0.3-1.5,0.8-2.6,1.9-3.5
		c1-0.9,2.2-1.3,3.7-1.2c1.5,0,2.7,0.4,3.7,1.3c1,0.9,1.6,2,1.8,3.4H104z"/>
	<polygon class="st0" points="136.5,20.8 130.2,35.3 124.2,20.8 119.4,20.8 127.8,40.3 132.5,40.3 140.9,20.8 	"/>
	<path class="st0" d="M34.4,27.7c-1.1,0-1.9,0.8-1.9,1.7v15.7c0,1,0.9,1.7,1.9,1.7c1.1,0,1.9-0.8,1.9-1.7V29.4
		C36.3,28.4,35.4,27.7,34.4,27.7"/>
	<path class="st1" d="M149.7,20.6c-1.6,0-3.1,0.2-4.6,0.6c-1.4,0.4-2.6,1-3.7,1.8l1.8,3.3c0.7-0.6,1.7-1.1,2.7-1.5
		c1.1-0.4,2.2-0.5,3.3-0.5c1.6,0,2.8,0.4,3.6,1.1c0.8,0.7,1.2,1.8,1.2,3.2v0.3h-5c-2.8,0-4.9,0.6-6.2,1.6c-1.3,1.1-2,2.5-2,4.2
		c0,1.1,0.3,2.1,0.9,3c0.6,0.9,1.5,1.6,2.5,2.1c1.1,0.5,2.4,0.7,3.8,0.7c1.5,0,2.7-0.2,3.7-0.7c1-0.5,1.8-1.1,2.4-2v2.4h4.3V28.9
		c0-2.7-0.8-4.8-2.3-6.2C154.8,21.3,152.6,20.6,149.7,20.6 M154.1,34.2L154.1,34.2c-0.4,0.9-1,1.7-1.9,2.2c-0.9,0.5-1.9,0.8-3.1,0.8
		c-1.2,0-2.1-0.3-2.7-0.7c-0.7-0.5-1-1.1-1-2c0-1.7,1.3-2.6,3.9-2.6h4.7V34.2z"/>
	<path class="st1" d="M178.9,23.3c-0.8-0.9-1.8-1.7-2.9-2.1c-1.2-0.5-2.5-0.7-3.9-0.7c-1.9,0-3.5,0.4-5,1.2
		c-1.5,0.8-2.7,1.9-3.6,3.3c-0.9,1.5-1.3,3.1-1.3,4.9c0,1.8,0.4,3.5,1.3,4.9c0.9,1.5,2.1,2.6,3.6,3.4c1.5,0.8,3.2,1.2,5,1.2
		c1.3,0,2.5-0.3,3.7-0.7c1.1-0.4,2.1-1,2.8-1.9v1c0,2-0.5,3.5-1.5,4.5c-1,1-2.6,1.5-4.7,1.5c-1.3,0-2.7-0.2-4-0.6
		c-1.3-0.4-2.4-1-3.3-1.7l-2.1,3.4c1.1,0.9,2.5,1.6,4.2,2.1c1.7,0.5,3.5,0.7,5.3,0.7c7,0,10.5-3.4,10.5-10.3V20.8v-0.1h-4.2V23.3z
		 M177,34c-1.1,1-2.5,1.6-4.2,1.6c-1.8,0-3.2-0.5-4.3-1.6s-1.7-2.4-1.7-4c0-1.7,0.6-3,1.7-4c1.1-1,2.5-1.6,4.3-1.6
		c1.7,0,3.2,0.5,4.2,1.6c1.1,1,1.7,2.3,1.7,4C178.7,31.7,178.1,33,177,34"/>
	<path class="st1" d="M192.7,23.6v-2.9h-4.4v19.6h4.6v-9.5c0-2,0.5-3.5,1.5-4.5c1-1,2.4-1.6,4.2-1.6c0.3,0,0.6,0.1,1,0.1v-4.4
		C196.3,20.6,194,21.6,192.7,23.6"/>
	<path class="st1" d="M220.3,25.4c-0.9-1.6-2.1-2.7-3.7-3.6c-1.6-0.9-3.4-1.3-5.4-1.3c-2,0-3.7,0.5-5.3,1.3
		c-1.6,0.9-2.8,2.1-3.7,3.6c-0.9,1.6-1.3,3.3-1.3,5.2s0.5,3.7,1.3,5.2c0.9,1.6,2.1,2.7,3.7,3.6c1.6,0.8,3.4,1.3,5.3,1.3
		c2,0,3.8-0.5,5.4-1.3c1.6-0.9,2.8-2.1,3.7-3.6c0.9-1.5,1.3-3.3,1.3-5.2C221.7,28.6,221.2,26.9,220.3,25.4 M215.4,35
		c-1.1,1.1-2.5,1.7-4.2,1.7c-1.7,0-3.1-0.5-4.1-1.7c-1.1-1.1-1.6-2.6-1.6-4.4c0-1.8,0.5-3.3,1.6-4.4c1.1-1.1,2.4-1.7,4.1-1.7
		c1.7,0,3.1,0.5,4.2,1.7c1.1,1.1,1.7,2.6,1.7,4.4C217.1,32.4,216.5,33.9,215.4,35"/>
	<path class="st1" d="M45.7,23l-6.9-11.3c-1.3-2.2-4.2-2.9-6.5-1.7c-0.7,0.4-1.3,1-1.8,1.7l-7,11.2c-3.6,5.8-1.5,13.1,4.7,16.5
		c0.6,0.4,1.3,0.6,2,0.9v-3.9c-3.3-1.8-5.2-5.4-4.3-9.1c0.2-0.9,0.5-1.7,1-2.4l7-11.3c0.3-0.4,0.8-0.6,1.3-0.3
		c0.2,0.1,0.3,0.2,0.4,0.3l6.9,11.3c1.6,2.6,1.6,5.9-0.1,8.4c-0.8,1.3-1.9,2.3-3.3,3.1v4.1c5.6-1.7,9.1-7.5,8.2-13.2
		C47,25.8,46.5,24.4,45.7,23"/>
	<path class="st1" d="M50.2,4.8C49.7,4,48.9,3.5,48,3.5H21.3c-0.9,0-1.8,0.5-2.2,1.3L5.7,27.9c-0.5,0.8-0.5,1.8,0,2.5l13.3,23.1
		c0.5,0.8,1.3,1.3,2.2,1.3H48c0.9,0,1.8-0.5,2.2-1.3l13.3-23.1c0.5-0.8,0.5-1.8,0-2.5L50.2,4.8z M47.6,51.7h-26l-13-22.6l13-22.5h26
		l13,22.5L47.6,51.7z"/>
</g>
</svg>
