<svg xmlns="http://www.w3.org/2000/svg" width="39" height="39" viewBox="0 0 39 39">
  <circle id="Ellipse_35" data-name="Ellipse 35" cx="19.5" cy="19.5" r="19.5" fill="#686868"/>
  <path id="Icon_zocial-email" data-name="Icon zocial-email" d="M.072,17.68V5.391q0-.021.064-.405l7.232,6.187L.157,18.106a1.808,1.808,0,0,1-.085-.427Zm.96-13.548a.919.919,0,0,1,.363-.064H20.873a1.208,1.208,0,0,1,.384.064L14,10.34l-.96.768-1.9,1.557-1.9-1.557-.96-.768Zm.021,14.806,7.275-6.976,2.816,2.283,2.816-2.283,7.275,6.976a1.024,1.024,0,0,1-.363.064H1.395a.966.966,0,0,1-.341-.064Zm13.868-7.766,7.211-6.187a1.273,1.273,0,0,1,.064.405V17.68a1.635,1.635,0,0,1-.064.427Z" transform="translate(8.477 7.274)" fill="#fff"/>
</svg>
