<?xml version="1.0" encoding="utf-8"?>
<!-- Generator: Adobe Illustrator 24.3.0, SVG Export Plug-In . SVG Version: 6.00 Build 0)  -->
<svg version="1.1" id="Layer_1" xmlns="http://www.w3.org/2000/svg" xmlns:xlink="http://www.w3.org/1999/xlink" x="0px" y="0px"
	 viewBox="0 0 70.4 58.4" style="enable-background:new 0 0 70 58.4;" xml:space="preserve">
<style type="text/css">
	.st0{fill:#FFFFFF;}
	.st1{fill:#B2D236;}
</style>
<g>
	<path class="st0" d="M34.4,27.7c-1.1,0-1.9,0.8-1.9,1.7v15.7c0,1,0.9,1.7,1.9,1.7c1.1,0,1.9-0.8,1.9-1.7V29.4
		C36.3,28.4,35.4,27.7,34.4,27.7"/>
	<path class="st1" d="M45.7,23l-6.9-11.3c-1.3-2.2-4.2-2.9-6.5-1.7c-0.7,0.4-1.3,1-1.8,1.7l-7,11.2c-3.6,5.8-1.5,13.1,4.7,16.5
		c0.6,0.4,1.3,0.6,2,0.9v-3.9c-3.3-1.8-5.2-5.4-4.3-9.1c0.2-0.9,0.5-1.7,1-2.4l7-11.3c0.3-0.4,0.8-0.6,1.3-0.3
		c0.2,0.1,0.3,0.2,0.4,0.3l6.9,11.3c1.6,2.6,1.6,5.9-0.1,8.4c-0.8,1.3-1.9,2.3-3.3,3.1v4.1c5.6-1.7,9.1-7.5,8.2-13.2
		C47,25.8,46.5,24.4,45.7,23"/>
	<path class="st1" d="M50.2,4.8C49.7,4,48.9,3.5,48,3.5H21.3c-0.9,0-1.8,0.5-2.2,1.3L5.7,27.9c-0.5,0.8-0.5,1.8,0,2.5l13.3,23.1
		c0.5,0.8,1.3,1.3,2.2,1.3H48c0.9,0,1.8-0.5,2.2-1.3l13.3-23.1c0.5-0.8,0.5-1.8,0-2.5L50.2,4.8z M47.6,51.7h-26l-13-22.6l13-22.5h26
		l13,22.5L47.6,51.7z"/>
</g>
</svg>
