<svg xmlns="http://www.w3.org/2000/svg" width="43" height="38" viewBox="0 0 43 38">
  <g id="Grupo_813" data-name="Grupo 813" transform="translate(0)">
    <g id="Grupo_465" data-name="Grupo 465" transform="translate(0 0)">
      <rect id="Retângulo_804" data-name="Retângulo 804" width="43" height="38" rx="11" transform="translate(0 0)" fill="#1f8bf8"/>
      <path id="Icon_awesome-facebook-messenger" data-name="Icon awesome-facebook-messenger" d="M12.18.562C5.635.562.562,5.346.562,11.807a10.989,10.989,0,0,0,3.649,8.317c.39.351.31.554.376,2.722a.931.931,0,0,0,1.3.821c2.473-1.089,2.5-1.175,2.924-1.061,7.165,1.972,14.931-2.613,14.931-10.8C23.746,5.346,18.726.562,12.18.562Zm6.976,8.653-3.412,5.4a1.747,1.747,0,0,1-2.52.464L10.509,13.05a.7.7,0,0,0-.841,0L6,15.828a.551.551,0,0,1-.8-.732l3.412-5.4a1.746,1.746,0,0,1,2.52-.464l2.714,2.031a.7.7,0,0,0,.841,0l3.665-2.775a.55.55,0,0,1,.8.73Z" transform="translate(9.854 7.318)" fill="#fff"/>
    </g>
  </g>
</svg>
