<svg xmlns="http://www.w3.org/2000/svg" width="42" height="38" viewBox="0 0 42 38">
  <g id="Grupo_812" data-name="Grupo 812" transform="translate(-0.001)">
    <g id="Grupo_464" data-name="Grupo 464" transform="translate(0 0)">
      <rect id="Retângulo_806" data-name="Retângulo 806" width="42" height="38" rx="11" transform="translate(0.001 0)" fill="#12c253"/>
      <path id="Icon_awesome-whatsapp" data-name="Icon awesome-whatsapp" d="M18.751,5.455a10.932,10.932,0,0,0-17.2,13.189L0,24.3l5.794-1.521a10.9,10.9,0,0,0,5.223,1.329h0A11.034,11.034,0,0,0,22.055,13.184a10.972,10.972,0,0,0-3.3-7.729ZM11.022,22.272a9.067,9.067,0,0,1-4.628-1.265l-.33-.2-3.436.9.916-3.353-.217-.345a9.1,9.1,0,1,1,16.881-4.829,9.185,9.185,0,0,1-9.186,9.088ZM16,15.468c-.271-.138-1.615-.8-1.866-.886s-.433-.138-.615.138-.7.886-.866,1.073-.32.207-.591.069a7.433,7.433,0,0,1-3.717-3.249c-.281-.482.281-.448.8-1.492a.506.506,0,0,0-.025-.478c-.069-.138-.615-1.482-.842-2.028s-.448-.458-.615-.468-.34-.01-.522-.01a1.012,1.012,0,0,0-.729.34,3.069,3.069,0,0,0-.955,2.279,5.35,5.35,0,0,0,1.113,2.826,12.2,12.2,0,0,0,4.667,4.125,5.344,5.344,0,0,0,3.279.684,2.8,2.8,0,0,0,1.841-1.3,2.284,2.284,0,0,0,.158-1.3C16.457,15.67,16.275,15.6,16,15.468Z" transform="translate(10.586 4.77)" fill="#fff"/>
    </g>
  </g>
</svg>
