<svg xmlns="http://www.w3.org/2000/svg" width="39" height="39" viewBox="0 0 39 39">
  <circle id="Ellipse_34" data-name="Ellipse 34" cx="19.5" cy="19.5" r="19.5" fill="#686868"/>
  <path id="Icon_awesome-whatsapp" data-name="Icon awesome-whatsapp" d="M18.752,5.455a10.933,10.933,0,0,0-17.2,13.189L0,24.306l5.794-1.521a10.9,10.9,0,0,0,5.223,1.329h0A11.035,11.035,0,0,0,22.056,13.184a10.973,10.973,0,0,0-3.3-7.729ZM11.023,22.273A9.068,9.068,0,0,1,6.4,21.007l-.33-.2-3.436.9.916-3.353-.217-.345a9.1,9.1,0,1,1,16.881-4.83,9.186,9.186,0,0,1-9.187,9.088Zm4.982-6.8c-.271-.138-1.615-.8-1.866-.886s-.433-.138-.615.138-.7.886-.866,1.073-.32.207-.591.069A7.434,7.434,0,0,1,8.35,12.613c-.281-.482.281-.448.8-1.492a.506.506,0,0,0-.025-.478c-.069-.138-.615-1.482-.842-2.028s-.448-.458-.615-.468-.34-.01-.522-.01a1.012,1.012,0,0,0-.729.34,3.069,3.069,0,0,0-.955,2.279,5.35,5.35,0,0,0,1.113,2.826,12.2,12.2,0,0,0,4.667,4.126,5.344,5.344,0,0,0,3.279.684,2.8,2.8,0,0,0,1.841-1.3,2.284,2.284,0,0,0,.158-1.3C16.458,15.671,16.276,15.6,16.005,15.469Z" transform="translate(8.736 5.985)" fill="#fff"/>
</svg>
