<svg xmlns="http://www.w3.org/2000/svg" width="38" height="39" viewBox="0 0 38 39">
  <ellipse id="Ellipse_30" data-name="Ellipse 30" cx="19" cy="19.5" rx="19" ry="19.5" fill="#686868"/>
  <path id="Icon_awesome-youtube" data-name="Icon awesome-youtube" d="M21.537,6.8a2.629,2.629,0,0,0-1.85-1.862c-1.632-.44-8.175-.44-8.175-.44s-6.543,0-8.175.44A2.629,2.629,0,0,0,1.487,6.8a27.58,27.58,0,0,0-.437,5.069,27.58,27.58,0,0,0,.437,5.069,2.59,2.59,0,0,0,1.85,1.832c1.632.44,8.175.44,8.175.44s6.543,0,8.175-.44a2.59,2.59,0,0,0,1.85-1.832,27.58,27.58,0,0,0,.437-5.069A27.58,27.58,0,0,0,21.537,6.8ZM9.372,14.982V8.76l5.469,3.111L9.372,14.982Z" transform="translate(7.488 7.644)" fill="#fff"/>
</svg>
