<svg xmlns="http://www.w3.org/2000/svg" width="27.172" height="27.172" viewBox="0 0 27.172 27.172">
  <path id="Icon_material-shopping-cart" data-name="Icon material-shopping-cart" d="M9.652,24.737a2.717,2.717,0,1,0,2.717,2.717A2.714,2.714,0,0,0,9.652,24.737ZM1.5,3V5.717H4.217L9.108,16.029,7.274,19.357a2.627,2.627,0,0,0-.34,1.3,2.725,2.725,0,0,0,2.717,2.717h16.3V20.662H10.222a.336.336,0,0,1-.34-.34l.041-.163,1.223-2.215H21.268a2.7,2.7,0,0,0,2.378-1.4l4.864-8.817a1.327,1.327,0,0,0,.163-.652,1.363,1.363,0,0,0-1.359-1.359H7.22L5.943,3ZM23.238,24.737a2.717,2.717,0,1,0,2.717,2.717A2.714,2.714,0,0,0,23.238,24.737Z" transform="translate(-1.5 -3)" fill="#fff"/>
</svg>
