<svg xmlns="http://www.w3.org/2000/svg" width="28.5" height="28.5" viewBox="0 0 28.5 28.5">
  <path id="Icon_awesome-certificate" data-name="Icon awesome-certificate" d="M25.529,14.246l2.56-2.505a1.326,1.326,0,0,0-.594-2.245L24.008,8.6l.983-3.452A1.349,1.349,0,0,0,23.34,3.5l-3.451.983L19,1A1.336,1.336,0,0,0,16.754.4l-2.5,2.58L11.746.4A1.336,1.336,0,0,0,9.5,1l-.89,3.489L5.16,3.5A1.349,1.349,0,0,0,3.509,5.153L4.492,8.6,1.005,9.5A1.326,1.326,0,0,0,.411,11.74l2.56,2.505L.411,16.751A1.326,1.326,0,0,0,1.005,19l3.487.89-.983,3.452A1.349,1.349,0,0,0,5.16,24.99l3.451-.983.89,3.489a1.324,1.324,0,0,0,2.245.594l2.5-2.561,2.5,2.561A1.329,1.329,0,0,0,19,27.495l.89-3.489,3.451.983a1.349,1.349,0,0,0,1.651-1.652l-.983-3.452L27.495,19a1.326,1.326,0,0,0,.594-2.245l-2.56-2.505Z" transform="translate(0 0)" fill="#b2d235"/>
</svg>
