<svg xmlns="http://www.w3.org/2000/svg" width="37.83" height="26.511" viewBox="0 0 37.83 26.511">
  <path id="Caminho_69" data-name="Caminho 69" d="M63.9,123.4c.333.111.635.2.937.308a1.055,1.055,0,0,1,.74,1.023,4.643,4.643,0,0,1-.173,1.745,2.271,2.271,0,0,1-.974,1.227,2.521,2.521,0,0,1-1.393.407H30.6a3.641,3.641,0,0,1-1.208-.185,2.221,2.221,0,0,1-1.535-1.763,4.549,4.549,0,0,1-.049-1.634.925.925,0,0,1,.666-.8c.3-.1.617-.166.962-.253V104.263a4.751,4.751,0,0,1,.142-1.289,1.6,1.6,0,0,1,1.6-1.313,6.864,6.864,0,0,1,1-.055q11.227-.009,22.448-.006c2.3,0,4.6,0,6.9.012a4.824,4.824,0,0,1,1.067.142,1.45,1.45,0,0,1,1.11,1.036,4.374,4.374,0,0,1,.191,1.381V123.4Zm-2.232-.481V104.356a2.611,2.611,0,0,0-.049-.487.453.453,0,0,0-.4-.407,5.09,5.09,0,0,0-.61-.049H32.736a4.418,4.418,0,0,0-.635.055.387.387,0,0,0-.351.333,3.63,3.63,0,0,0-.055.635v17.393q0,.407.018.814c.006.092.025.191.037.29C41.725,122.92,51.676,122.92,61.664,122.92Zm1.967,1.9H49.895v.191a.748.748,0,0,1-.672.826,2.593,2.593,0,0,1-.536.049c-.949,0-1.905-.006-2.855-.006-.518,0-1.036.012-1.554,0a1.649,1.649,0,0,1-.456-.08.689.689,0,0,1-.53-.69c-.006-.08-.006-.16-.012-.247H29.493a1.905,1.905,0,0,0,.185,1.128.99.99,0,0,0,.29.327,1.773,1.773,0,0,0,.919.351c.117.006.228.006.345.006H62a2.174,2.174,0,0,0,.9-.16A1.3,1.3,0,0,0,63.631,124.819Z" transform="translate(-27.758 -101.6)" fill="#b0cf47"/>
</svg>
