<svg id="Grupo_658" data-name="Grupo 658" xmlns="http://www.w3.org/2000/svg" width="27.346" height="20.51" viewBox="0 0 27.346 20.51">
  <path id="Icon_awesome-barcode" data-name="Icon awesome-barcode" d="M0,25.01V4.5H.961V25.01ZM1.434,25V4.5h.488V25Zm1.45,0V4.5h.473V25Zm2.4,0V4.5h.473V25ZM7.2,25V4.5h.946V25Zm2.4,0V4.5h.473V25Zm.961,0V4.5h.473V25Zm.961,0V4.5h.473V25Zm1.908,0V4.5h.961V25Zm2.4,0V4.5h.961V25Zm1.923,0V4.5h.961V25Zm1.923,0V4.5h.961V25ZM21.1,25V4.5h.961V25Zm2.411,0V4.5H24.95V25Zm1.907,0V4.5h.488V25Zm.961.015V4.5h.961V25.01Z" transform="translate(0 -4.5)" fill="#3f8b68"/>
</svg>
