<svg xmlns="http://www.w3.org/2000/svg" width="36.09" height="27.067" viewBox="0 0 36.09 27.067">
  <path id="Icon_metro-credit-card" data-name="Icon metro-credit-card" d="M35.277,5.784H5.954A3.393,3.393,0,0,0,2.571,9.168v20.3a3.393,3.393,0,0,0,3.383,3.383H35.277a3.393,3.393,0,0,0,3.383-3.383V9.168a3.393,3.393,0,0,0-3.383-3.383ZM5.954,8.04H35.277a1.143,1.143,0,0,1,1.128,1.128v3.383H4.826V9.168A1.143,1.143,0,0,1,5.954,8.04ZM35.277,30.6H5.954a1.143,1.143,0,0,1-1.128-1.128V19.318H36.405v10.15A1.143,1.143,0,0,1,35.277,30.6Zm-28.2-6.767H9.338V28.34H7.082Zm4.511,0h2.256V28.34H11.593Zm4.511,0H18.36V28.34H16.1Z" transform="translate(-2.571 -5.784)" fill="#707070"/>
</svg>
