<svg xmlns="http://www.w3.org/2000/svg" width="27.414" height="20.561" viewBox="0 0 27.414 20.561">
  <path id="Icon_metro-credit-card" data-name="Icon metro-credit-card" d="M27.415,5.784H5.141a2.578,2.578,0,0,0-2.57,2.57V23.775a2.578,2.578,0,0,0,2.57,2.57H27.415a2.578,2.578,0,0,0,2.57-2.57V8.354a2.578,2.578,0,0,0-2.57-2.57ZM5.141,7.5H27.415a.868.868,0,0,1,.857.857v2.57H4.284V8.354A.868.868,0,0,1,5.141,7.5ZM27.415,24.632H5.141a.868.868,0,0,1-.857-.857v-7.71H28.272v7.71a.868.868,0,0,1-.857.857ZM6,19.491H7.711v3.427H6Zm3.427,0h1.713v3.427H9.424Zm3.427,0h1.713v3.427H12.851Z" transform="translate(-2.571 -5.784)" fill="#3f8b68"/>
</svg>
