<svg xmlns="http://www.w3.org/2000/svg" width="25.799" height="20.066" viewBox="0 0 25.799 20.066">
  <path id="Icon_awesome-address-card" data-name="Icon awesome-address-card" d="M23.649,2.25H2.15A2.15,2.15,0,0,0,0,4.4V20.166a2.15,2.15,0,0,0,2.15,2.15h21.5a2.15,2.15,0,0,0,2.15-2.15V4.4A2.15,2.15,0,0,0,23.649,2.25ZM7.883,6.55A2.867,2.867,0,1,1,5.016,9.416,2.869,2.869,0,0,1,7.883,6.55ZM12.9,17.156a.939.939,0,0,1-1,.86H3.87a.939.939,0,0,1-1-.86V16.3a2.821,2.821,0,0,1,3.01-2.58H6.1a4.613,4.613,0,0,0,3.565,0H9.89A2.821,2.821,0,0,1,12.9,16.3Zm10.033-2.365a.359.359,0,0,1-.358.358h-6.45a.359.359,0,0,1-.358-.358v-.717a.359.359,0,0,1,.358-.358h6.45a.359.359,0,0,1,.358.358Zm0-2.867a.359.359,0,0,1-.358.358h-6.45a.359.359,0,0,1-.358-.358v-.717a.359.359,0,0,1,.358-.358h6.45a.359.359,0,0,1,.358.358Zm0-2.867a.359.359,0,0,1-.358.358h-6.45a.359.359,0,0,1-.358-.358V8.341a.359.359,0,0,1,.358-.358h6.45a.359.359,0,0,1,.358.358Z" transform="translate(0 -2.25)" fill="#fff"/>
</svg>
