<svg xmlns="http://www.w3.org/2000/svg" width="39" height="39" viewBox="0 0 39 39">
  <circle id="Ellipse_33" data-name="Ellipse 33" cx="19.5" cy="19.5" r="19.5" fill="#686868"/>
  <path id="Icon_awesome-instagram" data-name="Icon awesome-instagram" d="M9.7,6.966a4.977,4.977,0,1,0,4.977,4.977A4.969,4.969,0,0,0,9.7,6.966Zm0,8.212a3.236,3.236,0,1,1,3.236-3.236A3.241,3.241,0,0,1,9.7,15.179Zm6.341-8.416A1.161,1.161,0,1,1,14.885,5.6,1.158,1.158,0,0,1,16.046,6.763Zm3.3,1.178a5.745,5.745,0,0,0-1.568-4.067,5.782,5.782,0,0,0-4.067-1.568c-1.6-.091-6.406-.091-8.009,0A5.774,5.774,0,0,0,1.631,3.87,5.763,5.763,0,0,0,.063,7.937c-.091,1.6-.091,6.406,0,8.009a5.745,5.745,0,0,0,1.568,4.067A5.79,5.79,0,0,0,5.7,21.58c1.6.091,6.406.091,8.009,0a5.745,5.745,0,0,0,4.067-1.568,5.782,5.782,0,0,0,1.568-4.067c.091-1.6.091-6.4,0-8Zm-2.07,9.724a3.276,3.276,0,0,1-1.845,1.845c-1.278.507-4.31.39-5.722.39s-4.448.113-5.722-.39a3.276,3.276,0,0,1-1.845-1.845c-.507-1.278-.39-4.31-.39-5.722s-.113-4.448.39-5.722A3.276,3.276,0,0,1,3.983,4.376c1.278-.507,4.31-.39,5.722-.39s4.448-.113,5.722.39a3.276,3.276,0,0,1,1.845,1.845c.507,1.278.39,4.31.39,5.722S17.778,16.391,17.271,17.665Z" transform="translate(9.798 7.557)" fill="#fff"/>
</svg>
