<svg xmlns="http://www.w3.org/2000/svg" width="44" height="38" viewBox="0 0 44 38">
  <g id="Grupo_815" data-name="Grupo 815" transform="translate(0)">
    <g id="Grupo_467" data-name="Grupo 467" transform="translate(0 0)">
      <rect id="dd6f0b515102c955c5203c78eef66801" width="44" height="38" rx="11" transform="translate(0 0)" fill="#2675b8"/>
    </g>
    <path id="Icon_zocial-linkedin" data-name="Icon zocial-linkedin" d="M-.18,2.842A2.459,2.459,0,0,1,.619.958,2.932,2.932,0,0,1,2.7.216,2.844,2.844,0,0,1,4.729.947a2.575,2.575,0,0,1,.8,1.964,2.4,2.4,0,0,1-.776,1.827,2.937,2.937,0,0,1-2.1.754H2.629A2.794,2.794,0,0,1,.6,4.737a2.531,2.531,0,0,1-.776-1.9Zm.3,19.979V7.568H5.186V22.821H.117Zm7.878,0h5.069V14.3a3.287,3.287,0,0,1,.183-1.233,3.312,3.312,0,0,1,.97-1.313,2.481,2.481,0,0,1,1.633-.537q2.557,0,2.557,3.448v8.152h5.069V14.076a7.349,7.349,0,0,0-1.6-5.126A5.452,5.452,0,0,0,17.653,7.2a5.182,5.182,0,0,0-4.59,2.535v.046h-.023l.023-.046V7.568H7.994q.046.731.046,4.544T7.994,22.821Z" transform="translate(9.88 5.928)" fill="#fff"/>
  </g>
</svg>
