<svg xmlns="http://www.w3.org/2000/svg" width="39" height="39" viewBox="0 0 39 39">
  <circle id="Ellipse_32" data-name="Ellipse 32" cx="19.5" cy="19.5" r="19.5" fill="#686868"/>
  <path id="Icon_awesome-facebook-messenger" data-name="Icon awesome-facebook-messenger" d="M10.085.563A9.181,9.181,0,0,0,.563,9.779,9.008,9.008,0,0,0,3.554,16.6c.32.288.254.454.308,2.231A.763.763,0,0,0,4.93,19.5c2.027-.893,2.053-.963,2.4-.87,5.873,1.616,12.239-2.142,12.239-8.852A9.145,9.145,0,0,0,10.085.563ZM15.8,7.655l-2.8,4.428a1.432,1.432,0,0,1-2.065.38L8.715,10.8a.575.575,0,0,0-.69,0l-3,2.277a.452.452,0,0,1-.656-.6l2.8-4.428a1.431,1.431,0,0,1,2.065-.38l2.224,1.665a.575.575,0,0,0,.69,0l3-2.275a.45.45,0,0,1,.655.6Z" transform="translate(9.436 9.436)" fill="#fff"/>
</svg>
